<svg viewBox="0 0 860 238" xmlns="http://www.w3.org/2000/svg" font-family="Consolas, Menlo, monospace" font-size="13">
    <style>
      .chip { opacity: 0; transform: translateY(-4px); animation: popIn 0.35s ease-out forwards; }
      .line { opacity: 0; transform: translateX(-8px); animation: fadeSlide 0.4s ease-out forwards; }
      @keyframes popIn {
        0%   { opacity: 0; transform: translateY(-4px); }
        100% { opacity: 1; transform: translateY(0); }
      }
      @keyframes fadeSlide {
        0%   { opacity: 0; transform: translateX(-8px); }
        100% { opacity: 1; transform: translateX(0); }
      }
    </style>
    <rect x="0" y="0" width="860" height="26" rx="6" ry="6" fill="#161b22" /><circle cx="14" cy="13" r="4" fill="#ff5f56" /><circle cx="28" cy="13" r="4" fill="#ffbd2e" /><circle cx="42" cy="13" r="4" fill="#27c93f" /><text x="430.0" y="17" fill="#8b949e" font-size="11" text-anchor="middle">muzammil@github: ~$ cat skills.txt</text><text x="20" y="46" fill="#39d353" font-weight="600">Tech Stack</text><g class="chip" style="animation-delay:0.0s"><rect x="20" y="62" width="145.46" height="24" rx="6" ry="6" fill="#161b22" stroke="#30363d" /><text x="30" y="79" fill="#c9d1d9" font-size="12.3">JavaScript (ES6+)</text></g><g class="chip" style="animation-delay:0.06s"><rect x="173.46" y="62" width="79.03999999999999" height="24" rx="6" ry="6" fill="#161b22" stroke="#30363d" /><text x="183.46" y="79" fill="#c9d1d9" font-size="12.3">React.js</text></g><g class="chip" style="animation-delay:0.12s"><rect x="260.5" y="62" width="108.56000000000002" height="24" rx="6" ry="6" fill="#161b22" stroke="#30363d" /><text x="270.5" y="79" fill="#c9d1d9" font-size="12.3">Tailwind CSS</text></g><g class="chip" style="animation-delay:0.18s"><rect x="377.06" y="62" width="86.42" height="24" rx="6" ry="6" fill="#161b22" stroke="#30363d" /><text x="387.06" y="79" fill="#c9d1d9" font-size="12.3">Bootstrap</text></g><g class="chip" style="animation-delay:0.24s"><rect x="471.48" y="62" width="79.03999999999999" height="24" rx="6" ry="6" fill="#161b22" stroke="#30363d" /><text x="481.48" y="79" fill="#c9d1d9" font-size="12.3">Firebase</text></g><g class="chip" style="animation-delay:0.3s"><rect x="558.52" y="62" width="79.03999999999999" height="24" rx="6" ry="6" fill="#161b22" stroke="#30363d" /><text x="568.52" y="79" fill="#c9d1d9" font-size="12.3">Supabase</text></g><g class="chip" style="animation-delay:0.36s"><rect x="645.56" y="62" width="93.8" height="24" rx="6" ry="6" fill="#161b22" stroke="#30363d" /><text x="655.56" y="79" fill="#c9d1d9" font-size="12.3">PostgreSQL</text></g><g class="chip" style="animation-delay:0.42s"><rect x="747.3599999999999" y="62" width="56.9" height="24" rx="6" ry="6" fill="#161b22" stroke="#30363d" /><text x="757.3599999999999" y="79" fill="#c9d1d9" font-size="12.3">MySQL</text></g><g class="chip" style="animation-delay:0.48s"><rect x="20" y="94" width="86.42" height="24" rx="6" ry="6" fill="#161b22" stroke="#30363d" /><text x="30" y="111" fill="#c9d1d9" font-size="12.3">WordPress</text></g><g class="chip" style="animation-delay:0.54s"><rect x="114.42" y="94" width="101.18" height="24" rx="6" ry="6" fill="#161b22" stroke="#30363d" /><text x="124.42" y="111" fill="#c9d1d9" font-size="12.3">Arduino/IoT</text></g><text x="20" y="140" fill="#39d353" font-weight="600">Achievements</text><g class="line" style="animation-delay:0.6s"><text x="20" y="156" fill="#39d353">&gt;</text><text x="36" y="156" fill="#c9d1d9">1st place - CODE JUNG 2025 (Web Development)</text></g><g class="line" style="animation-delay:0.75s"><text x="20" y="180" fill="#39d353">&gt;</text><text x="36" y="180" fill="#c9d1d9">Top 5 - SMIT Hackathon 2025</text></g><g class="line" style="animation-delay:0.9s"><text x="20" y="204" fill="#39d353">&gt;</text><text x="36" y="204" fill="#c9d1d9">Cisco Networking Basics certification</text></g></svg>