<svg viewBox="0 0 860 388" xmlns="http://www.w3.org/2000/svg" font-family="Consolas, Menlo, monospace" font-size="13">
    <style>
      .chip { opacity: 0; transform: translateY(-4px); animation: popIn 0.35s ease-out forwards; }
      .line { opacity: 0; transform: translateX(-8px); animation: fadeSlide 0.4s ease-out forwards; }
      @keyframes popIn {
        0%   { opacity: 0; transform: translateY(-4px); }
        100% { opacity: 1; transform: translateY(0); }
      }
      @keyframes fadeSlide {
        0%   { opacity: 0; transform: translateX(-8px); }
        100% { opacity: 1; transform: translateX(0); }
      }
    </style>
    <rect x="0" y="0" width="860" height="26" rx="6" ry="6" fill="#161b22" /><circle cx="14" cy="13" r="4" fill="#ff5f56" /><circle cx="28" cy="13" r="4" fill="#ffbd2e" /><circle cx="42" cy="13" r="4" fill="#27c93f" /><text x="430.0" y="17" fill="#8b949e" font-size="11" text-anchor="middle">muzammil@github: ~$ cat skills.txt</text><text x="20" y="46" fill="#39d353" font-weight="600">Tech Stack</text><text x="20" y="68" fill="#8b949e" font-size="11.5">Languages &amp; Frameworks</text><g class="chip" style="animation-delay:0.0s"><rect x="20" y="82" width="145.46" height="24" rx="6" ry="6" fill="#161b22" stroke="#30363d" /><text x="30" y="99" fill="#c9d1d9" font-size="12.3">JavaScript (ES6+)</text></g><g class="chip" style="animation-delay:0.05s"><rect x="173.46" y="82" width="71.66" height="24" rx="6" ry="6" fill="#161b22" stroke="#30363d" /><text x="183.46" y="99" fill="#c9d1d9" font-size="12.3">Node.js</text></g><g class="chip" style="animation-delay:0.1s"><rect x="253.12" y="82" width="93.8" height="24" rx="6" ry="6" fill="#161b22" stroke="#30363d" /><text x="263.12" y="99" fill="#c9d1d9" font-size="12.3">Express.js</text></g><g class="chip" style="animation-delay:0.15000000000000002s"><rect x="354.92" y="82" width="71.66" height="24" rx="6" ry="6" fill="#161b22" stroke="#30363d" /><text x="364.92" y="99" fill="#c9d1d9" font-size="12.3">MongoDB</text></g><g class="chip" style="animation-delay:0.2s"><rect x="434.58000000000004" y="82" width="64.28" height="24" rx="6" ry="6" fill="#161b22" stroke="#30363d" /><text x="444.58000000000004" y="99" fill="#c9d1d9" font-size="12.3">Python</text></g><g class="chip" style="animation-delay:0.25s"><rect x="506.86" y="82" width="42.14" height="24" rx="6" ry="6" fill="#161b22" stroke="#30363d" /><text x="516.86" y="99" fill="#c9d1d9" font-size="12.3">C++</text></g><g class="chip" style="animation-delay:0.3s"><rect x="557.0" y="82" width="56.9" height="24" rx="6" ry="6" fill="#161b22" stroke="#30363d" /><text x="567.0" y="99" fill="#c9d1d9" font-size="12.3">HTML5</text></g><g class="chip" style="animation-delay:0.35s"><rect x="621.9" y="82" width="49.519999999999996" height="24" rx="6" ry="6" fill="#161b22" stroke="#30363d" /><text x="631.9" y="99" fill="#c9d1d9" font-size="12.3">CSS3</text></g><g class="chip" style="animation-delay:0.39999999999999997s"><rect x="679.42" y="82" width="79.03999999999999" height="24" rx="6" ry="6" fill="#161b22" stroke="#30363d" /><text x="689.42" y="99" fill="#c9d1d9" font-size="12.3">React.js</text></g><text x="20" y="122" fill="#8b949e" font-size="11.5">Styling &amp; Backend Services</text><g class="chip" style="animation-delay:0.2s"><rect x="20" y="136" width="108.56000000000002" height="24" rx="6" ry="6" fill="#161b22" stroke="#30363d" /><text x="30" y="153" fill="#c9d1d9" font-size="12.3">Tailwind CSS</text></g><g class="chip" style="animation-delay:0.25s"><rect x="136.56" y="136" width="86.42" height="24" rx="6" ry="6" fill="#161b22" stroke="#30363d" /><text x="146.56" y="153" fill="#c9d1d9" font-size="12.3">Bootstrap</text></g><g class="chip" style="animation-delay:0.3s"><rect x="230.98000000000002" y="136" width="86.42" height="24" rx="6" ry="6" fill="#161b22" stroke="#30363d" /><text x="240.98000000000002" y="153" fill="#c9d1d9" font-size="12.3">REST APIs</text></g><g class="chip" style="animation-delay:0.35s"><rect x="325.40000000000003" y="136" width="79.03999999999999" height="24" rx="6" ry="6" fill="#161b22" stroke="#30363d" /><text x="335.40000000000003" y="153" fill="#c9d1d9" font-size="12.3">Firebase</text></g><g class="chip" style="animation-delay:0.39999999999999997s"><rect x="412.44000000000005" y="136" width="79.03999999999999" height="24" rx="6" ry="6" fill="#161b22" stroke="#30363d" /><text x="422.44000000000005" y="153" fill="#c9d1d9" font-size="12.3">Supabase</text></g><g class="chip" style="animation-delay:0.44999999999999996s"><rect x="499.48" y="136" width="56.9" height="24" rx="6" ry="6" fill="#161b22" stroke="#30363d" /><text x="509.48" y="153" fill="#c9d1d9" font-size="12.3">MySQL</text></g><text x="20" y="176" fill="#8b949e" font-size="11.5">Tools &amp; Platforms</text><g class="chip" style="animation-delay:0.4s"><rect x="20" y="190" width="42.14" height="24" rx="6" ry="6" fill="#161b22" stroke="#30363d" /><text x="30" y="207" fill="#c9d1d9" font-size="12.3">Git</text></g><g class="chip" style="animation-delay:0.45s"><rect x="70.14" y="190" width="64.28" height="24" rx="6" ry="6" fill="#161b22" stroke="#30363d" /><text x="80.14" y="207" fill="#c9d1d9" font-size="12.3">GitHub</text></g><g class="chip" style="animation-delay:0.5s"><rect x="142.42000000000002" y="190" width="71.66" height="24" rx="6" ry="6" fill="#161b22" stroke="#30363d" /><text x="152.42000000000002" y="207" fill="#c9d1d9" font-size="12.3">Postman</text></g><g class="chip" style="animation-delay:0.55s"><rect x="222.08" y="190" width="71.66" height="24" rx="6" ry="6" fill="#161b22" stroke="#30363d" /><text x="232.08" y="207" fill="#c9d1d9" font-size="12.3">VS Code</text></g><g class="chip" style="animation-delay:0.6000000000000001s"><rect x="301.74" y="190" width="71.66" height="24" rx="6" ry="6" fill="#161b22" stroke="#30363d" /><text x="311.74" y="207" fill="#c9d1d9" font-size="12.3">Netlify</text></g><g class="chip" style="animation-delay:0.6500000000000001s"><rect x="381.4" y="190" width="64.28" height="24" rx="6" ry="6" fill="#161b22" stroke="#30363d" /><text x="391.4" y="207" fill="#c9d1d9" font-size="12.3">Vercel</text></g><g class="chip" style="animation-delay:0.7000000000000002s"><rect x="453.67999999999995" y="190" width="56.9" height="24" rx="6" ry="6" fill="#161b22" stroke="#30363d" /><text x="463.67999999999995" y="207" fill="#c9d1d9" font-size="12.3">XAMPP</text></g><text x="20" y="230" fill="#8b949e" font-size="11.5">CMS &amp; Design</text><g class="chip" style="animation-delay:0.6000000000000001s"><rect x="20" y="244" width="86.42" height="24" rx="6" ry="6" fill="#161b22" stroke="#30363d" /><text x="30" y="261" fill="#c9d1d9" font-size="12.3">WordPress</text></g><g class="chip" style="animation-delay:0.6500000000000001s"><rect x="114.42" y="244" width="86.42" height="24" rx="6" ry="6" fill="#161b22" stroke="#30363d" /><text x="124.42" y="261" fill="#c9d1d9" font-size="12.3">Elementor</text></g><g class="chip" style="animation-delay:0.7000000000000002s"><rect x="208.84" y="244" width="145.46" height="24" rx="6" ry="6" fill="#161b22" stroke="#30363d" /><text x="218.84" y="261" fill="#c9d1d9" font-size="12.3">Responsive Design</text></g><g class="chip" style="animation-delay:0.7500000000000002s"><rect x="362.3" y="244" width="108.56000000000002" height="24" rx="6" ry="6" fill="#161b22" stroke="#30363d" /><text x="372.3" y="261" fill="#c9d1d9" font-size="12.3">UI/UX Basics</text></g><text x="20" y="290" fill="#39d353" font-weight="600">Achievements</text><g class="line" style="animation-delay:0.8s"><text x="20" y="306" fill="#39d353">&gt;</text><text x="36" y="306" fill="#c9d1d9">1st place - CODE JUNG 2025 (Web Development)</text></g><g class="line" style="animation-delay:0.9500000000000001s"><text x="20" y="330" fill="#39d353">&gt;</text><text x="36" y="330" fill="#c9d1d9">Top 5 - SMIT Hackathon 2025</text></g><g class="line" style="animation-delay:1.1s"><text x="20" y="354" fill="#39d353">&gt;</text><text x="36" y="354" fill="#c9d1d9">Cisco Networking Basics certification</text></g></svg>